<?xml version="1.0" encoding="UTF-8"?>
<svg id="Layer_1" data-name="Layer 1" xmlns="http://www.w3.org/2000/svg" xmlns:xlink="http://www.w3.org/1999/xlink" version="1.1" viewBox="0 0 191.5 44">
  <defs>
    <style>
      .cls-1 {
        fill: #000048;
      }

      .cls-1, .cls-2 {
        stroke-width: 0px;
      }

      .cls-3 {
        clip-path: url(#clippath);
      }

      .cls-2 {
        fill: none;
      }
    </style>
    <clipPath id="clippath">
      <rect class="cls-2" x="1.4" y="1.6" width="187.7" height="40.8"/>
    </clipPath>
  </defs>
  <rect class="cls-2" x="2.4" y="1.6" width="186.7" height="40.8"/>
  <g class="cls-3">
    <path class="cls-1" d="M101.9,9.6h3.7v22.1h-3.7V9.6ZM88.4,9.1c-2.4,0-4.6.8-6.4,2.3v-1.8h-3.7v22.1h3.7v-12.5c0-3.6,2.9-6.4,6.4-6.4s6.4,2.9,6.4,6.4v12.5h3.7v-12.5c0-5.6-4.5-10.1-10.1-10.1M70.9,9.5h3.7v21.3c-.1,6.3-5.2,11.4-11.5,11.5-5,0-9.6-3.2-11-8h4c1.3,2.7,4,4.4,7,4.3,4.3,0,7.7-3.6,7.9-7.9v-1.8c-4.7,4.3-12,4.1-16.3-.6-4.3-4.7-4.1-12,.6-16.3,4.4-4.1,11.3-4.1,15.7,0,0,0,0-2.5,0-2.5ZM70.9,20.6c0-4.3-3.5-7.9-7.8-7.9s-7.9,3.5-7.9,7.8,3.5,7.9,7.9,7.9,7.8-3.5,7.8-7.8M13.9,12.7c3,0,5.8,1.8,7.1,4.5h3.9c-1.8-6.1-8.3-9.6-14.4-7.7-6.1,1.8-9.6,8.3-7.7,14.4s8.3,9.6,14.4,7.7c3.7-1.1,6.6-4,7.7-7.7h-3.9c-1.8,3.9-6.5,5.6-10.4,3.8-3.9-1.8-5.6-6.5-3.8-10.4,1.3-2.8,4-4.6,7.1-4.6M49.8,20.6c0,6.4-5.2,11.5-11.5,11.5s-11.5-5.2-11.5-11.5,5-11.5,11.4-11.5,11.6,5.1,11.6,11.5M46.1,20.6c0-4.3-3.5-7.9-7.8-7.9s-7.9,3.5-7.9,7.8,3.5,7.9,7.8,7.9,7.9-3.5,7.9-7.8M166.6,9.1c-2.4,0-4.6.8-6.4,2.3v-1.8h-3.7v22.1h3.7v-12.5c0-3.6,2.9-6.5,6.4-6.5s6.5,2.9,6.5,6.4v12.5h3.7v-12.4c-.1-5.6-4.6-10.1-10.2-10.1M149.1,9.6h3.7v22.1h-3.7v-2.6c-4.7,4.3-12,4.1-16.3-.6s-4.1-12,.6-16.3c2.1-2,4.9-3.1,7.8-3.1s5.7,1.1,7.9,3.1v-2.6ZM149.1,20.6c0-4.3-3.5-7.8-7.9-7.8s-7.8,3.5-7.8,7.9,3.5,7.8,7.8,7.8c4.4-.1,7.9-3.6,7.9-7.9M189,13.2v-3.7h-5.5V3.5h-3.7v20.8c0,4.1,3.3,7.4,7.4,7.4h1.8v-3.7h-1.8c-2,0-3.7-1.7-3.7-3.7v-11.1h5.5,0ZM103.7,1.6c-1.4,0-2.4,1.1-2.4,2.4s1.1,2.4,2.4,2.4,2.4-1.1,2.4-2.4c.1-1.3-1-2.4-2.4-2.4q.1,0,0,0M127.7,9.6h-18.4v3.7h13.6l-13.6,14.7v3.7h18.4v-3.7h-13.7l13.6-14.7v-3.7q.1,0,0,0Z"/>
  </g>
</svg>